# xmcd
#
# Track frame offsets: 
#        150
#        17125
#        31075
#        43537
#        62362
#        82037
#        97575
#        116050
#        136100
#        158312
#
# Disc length: 2380 seconds
#
# Revision: 0
# Processed by: cddbd v1.5.2PL0 Copyright (c) Steve Scherf et al.
# Submitted via: ExactAudioCopy v1.0b3
#
DISCID=65094a0a
DTITLE=Various Artist - Nhac Tre Xuan
DYEAR=1995
DGENRE=
TTITLE0=Ngoc Lan - Mua Xuan gui anh [chacha]
TTITLE1=Ngoc Hue - Duoi anh nang Xuan [bebop]
TTITLE2=Kenny Thai - Ngay Xuan ben nhau [chacha]
TTITLE3=My Huyen - Hat mua Xuan [bebop]
TTITLE4=Trung Hanh, My Huyen - Ben nhau trong nang Nang Xuan [valse]
TTITLE5=Le Hong - Xuan ben anh [tango]
TTITLE6=Chung Tu Luu, My Huyen - Khuc nhac tinh Xuan [chacha]
TTITLE7=Thuy Vi - Xuan mo ve anh [bebop]
TTITLE8=Trung Hanh - Cho nguoi yeu dau [slow]
TTITLE9=Chung Tu Luu - Xuan nay van doi [slow]
EXTD=
EXTT0=
EXTT1=
EXTT2=
EXTT3=
EXTT4=
EXTT5=
EXTT6=
EXTT7=
EXTT8=
EXTT9=
PLAYORDER=
